<svg xmlns="http://www.w3.org/2000/svg" xml:space="preserve" width="749.62" height="159.08" viewBox="0 0 198.34 42.09"><path d="M71.01 123.28c-3.13-6.88-3.35-18.73 8.74-24.92q4.5-2.31 11.63-2.13c5.14.13 6.85 1.12 10.58 3.82.47.35.48 1.09.35 1.31-.74.06-1.16-.48-2-1.07-3.65-2.55-6.96-3.09-10.27-3.28-4.61-.28-7.17.54-10.1 2.7-4.2 3.09-7.55 7.47-8.57 11.21-.06.21-2.44 9.06 3.8 15.66 4.34 4.6 7.7 5.15 13.72 5.65 5.29.43 9.09-1.72 13.9-4.56 1.14-.67 2.18-.96.88.1-2.21 1.79-5.62 5.09-13.84 5.47-3.25.15-14.26.08-18.82-9.96m108.64 10.01c-6.32-1.24-11.63-5.18-13.99-10.36-2.23-4.91-2.36-11.58-.31-16.2 1.3-2.94 5.32-6.8 9.05-8.72q4.5-2.31 11.63-2.13c2.58.06 3.08.13 4.44.56a22 22 0 0 1 8.03 4.5 16.7 16.7 0 0 1 5.4 8.16c.46 1.53.78 6.8.1 9.54-1.86 7.59-7.57 12.6-15.34 14.56-1.2.3-1.96.36-4.6.35-1.93 0-3.66-.1-4.41-.26m6.26-.6c3.66-.42 6.2-1.33 8.81-3.14 3.74-2.58 6.6-6.44 7.67-10.32.56-3.37.78-7.06-.38-10.32a19 19 0 0 0-5.53-7.9c-3.46-3.05-6.56-4.2-11.79-4.35-4.62-.15-7.17.54-10.1 2.7-4.2 3.09-7.54 7.47-8.57 11.21-.37 1.34-.4 1.8-.3 4.65.18 5.21.83 6.95 4.1 11 4.13 5.14 9.36 7.24 16.1 6.47m-33.35.57c-.5-.74-.88-12.44-.88-26.85V96.36l-2.26-.01c-4.9-.04-8.1.03-10.4.23-3.35.28-3.7.28-3.78-.06-.04-.16.08-.42.25-.57.28-.26 1.86-.29 16.93-.29 14.17 0 16.67.04 16.99.25.36.25.36.26-.04.63-.4.38-.43.38-4.6.2-2.3-.1-5.83-.24-7.85-.3l-3.65-.12-.17 2.6c-.1 1.45-.18 9.74-.18 18.44s-.06 15.88-.13 15.94q-.12.08-.23-.04m-104.74-.67a23 23 0 0 1-11.22-5.58 18 18 0 0 1-4.09-5.15 17.5 17.5 0 0 1-.86-14.8c1.84-4.71 5.11-8.38 11.33-11.02 3.71-1.58 6.35-1.61 9.78-1.56 4.11.06 7.36 1.15 11.08 3.38 2.14 1.28 4.68 3.54 4.68 4.16 0 .54-.86 1.38-13.03 12.86C43.69 126 41.3 128.3 41.3 128.59c2.52 2.4 6.52 2.98 9.83 2.93 2.28 0 4.27-.14 5-.24 2.86-.38 6.04-1.73 9.68-4.13a8 8 0 0 1 1.98-1.09c.12.04-.47.6-1.3 1.25a26 26 0 0 1-11.01 5.2c-1.7.34-6.22.39-7.67.08m2.9-15.17c10.5-9.67 14.74-13.73 15.2-14.53.25-.46.24-.57-.1-1.2a10 10 0 0 0-1.49-1.77c-2.05-1.97-4.74-3.24-8.27-3.91a18 18 0 0 0-4.98-.3c-3.4.11-5.2.46-7.38 1.45-2.56 1.16-6.05 4.08-7.87 6.57-1.72 2.36-2.77 6.28-2.78 10.37-.02 4.87.81 7.87 4.98 11.85l1.68 1.6.38-.44c.44-.36 5.22-4.72 10.62-9.69M6.57 133.46c-.54-.3-.24-2.83-.36-12-.07-5.55-.14-13.79-.15-18.3l-.02-11.3s1.78-.07 4.97-.14c7.7-.17 9.95.56 13.19 2.59a11.6 11.6 0 0 1 3.11 16.47c-2.72 2.94-5.61 3.31-16.02 3.77l-3.24.01-.03 6.56c-.03 6.29.17 10.55-.14 11.6-.21.74-.23 1.33-.95.94zm9.17-20.34c6.17-.52 11.63-1.2 12.14-8.28.2-2.8-.77-5.23-2.57-7.39-3.57-4.91-13.37-4.68-17.52-4.12l.04 11.26.14 8.73 2.15-.02c.87-.04 3.4-.13 5.62-.18m101.32 19.42c-1.58-.47-3.27-1.82-5.2-3.67-1.28-1.22-1.55-2.31-2.1-3.31l-.4-1.33-.5-8.29c-.08-4.54-.1-11.04-.02-14.43.12-5.34.18-6.2.44-6.28.16-.06.36-.04.44.03.2.18.5 5.68.75 13.39.25 7.86.53 12.95.79 14.3.36 1.9.92 3.82 2.64 5.3 1.8 1.54 4.06 3.03 6.12 3.51 2.82.66 5.25-.17 7.98-1.4 3.4-1.54 4.47-4.26 5.16-9.38.33-2.47.43-4.67.7-14.32.2-7.48.4-9.28.66-6.17.2 2.43-.04 20.74-.3 22.46a9 9 0 0 1-.56 2.13c-.58 1.2-1.43 3.73-3.02 5.25-2.17 2.78-8.89 4.64-13.58 2.21M88.73 94.61a26 26 0 0 1-6.32-1.47c-.82-.35-1.45-.69-1.39-.74s1.07.14 2.24.44c5.56 1.42 9.1 1.4 13.27-.08 1.99-.7 1.88-.68 1.88-.37 0 .28-1.14 1.03-2.12 1.4a22 22 0 0 1-7.56.82" style="fill:#000" transform="translate(-6.05 -91.7)"/></svg>