<?xml version="1.0" encoding="UTF-8" standalone="no"?>
<!-- Created with Inkscape (http://www.inkscape.org/) -->

<svg
   width="198.338mm"
   height="42.089405mm"
   viewBox="0 0 198.338 42.089405"
   version="1.1"
   id="svg1"
   xml:space="preserve"
   inkscape:version="1.4.3 (0d15f75, 2025-12-25)"
   sodipodi:docname="logo1_upravene.svg"
   xmlns:inkscape="http://www.inkscape.org/namespaces/inkscape"
   xmlns:sodipodi="http://sodipodi.sourceforge.net/DTD/sodipodi-0.dtd"
   xmlns="http://www.w3.org/2000/svg"
   xmlns:svg="http://www.w3.org/2000/svg"><sodipodi:namedview
     id="namedview1"
     pagecolor="#ffffff"
     bordercolor="#000000"
     borderopacity="0.25"
     inkscape:showpageshadow="2"
     inkscape:pageopacity="0.0"
     inkscape:pagecheckerboard="0"
     inkscape:deskcolor="#d1d1d1"
     inkscape:document-units="mm"
     inkscape:zoom="1.3950758"
     inkscape:cx="361.27069"
     inkscape:cy="164.50719"
     inkscape:window-width="1920"
     inkscape:window-height="921"
     inkscape:window-x="-8"
     inkscape:window-y="-8"
     inkscape:window-maximized="1"
     inkscape:current-layer="layer1" /><defs
     id="defs1" /><g
     inkscape:label="Vrstva 1"
     inkscape:groupmode="layer"
     id="layer1"
     transform="translate(-6.0549579,-91.695414)"><path
       style="fill:#000000"
       d="m 71.009558,123.27691 c -3.126465,-6.87841 -3.34493,-18.72401 8.7386,-24.913135 3.01359,-1.54355 6.87411,-2.25225 11.63048,-2.13508 5.136539,0.126421 6.855744,1.117354 10.582122,3.817145 0.46745,0.34973 0.48387,1.09099 0.34531,1.31659 -0.7396,0.0542 -1.15867,-0.48252 -1.99714,-1.07024 -3.644794,-2.554788 -6.96194,-3.090478 -10.266812,-3.285815 -4.617016,-0.272893 -7.17573,0.54133 -10.10888,2.70246 -4.19279,3.089225 -7.53893,7.470125 -8.56622,11.215215 -0.05696,0.20765 -2.436385,9.05526 3.79744,15.65515 4.342222,4.5972 7.706019,5.14909 13.730436,5.64751 5.284579,0.43721 9.081332,-1.7216 13.890716,-4.55264 1.14763,-0.67555 2.18938,-0.96589 0.88874,0.0887 -2.21407,1.79513 -5.620474,5.09518 -13.841938,5.47919 -3.250309,0.15182 -14.260012,0.0736 -18.822854,-9.965 z m 108.636882,10.01714 c -6.31438,-1.24092 -11.62704,-5.17946 -13.98545,-10.36811 -2.23172,-4.90995 -2.35997,-11.57419 -0.31159,-16.19129 1.30623,-2.94427 5.31745,-6.809955 9.05019,-8.721845 3.0136,-1.54355 6.87411,-2.25225 11.63049,-2.13509 2.57799,0.0635 3.08351,0.12773 4.44188,0.56434 3.18158,1.02263 5.66969,2.4138 8.03185,4.490815 2.65212,2.33199 4.39336,4.77596 5.40361,8.17095 0.45337,1.52357 0.77174,6.79795 0.0983,9.53484 -1.86722,7.58805 -7.57517,12.59344 -15.35009,14.56468 -1.19732,0.30356 -1.95406,0.36106 -4.59845,0.34941 -1.92559,-0.008 -3.65306,-0.10981 -4.4107,-0.2587 z m 6.26568,-0.60861 c 3.65349,-0.41958 6.19632,-1.32348 8.81044,-3.13187 3.73588,-2.5844 6.60369,-6.44304 7.66929,-10.31904 0.55768,-3.37388 0.77488,-7.06007 -0.3842,-10.32368 -1.17894,-3.1458 -2.88406,-5.58581 -5.52644,-7.90828 -3.46223,-3.043055 -6.56615,-4.187785 -11.78738,-4.347175 -4.62292,-0.14112 -7.17573,0.54134 -10.10888,2.70247 -4.19278,3.089225 -7.53893,7.470125 -8.56621,11.215215 -0.36725,1.33883 -0.39692,1.80146 -0.29826,4.65039 0.18041,5.20988 0.82745,6.94841 4.09569,11.00476 4.13456,5.13158 9.36577,7.23015 16.09618,6.45721 z m -33.34816,0.57359 c -0.49545,-0.73424 -0.88249,-12.43951 -0.88775,-26.84886 l -0.004,-10.046595 -2.25133,-0.0161 c -4.89511,-0.035 -8.10598,0.0363 -10.39441,0.23078 -3.35346,0.285 -3.71541,0.2791 -3.78926,-0.0618 -0.0341,-0.15719 0.0779,-0.41384 0.24873,-0.57033 0.28171,-0.25801 1.85976,-0.28453 16.92974,-0.28453 14.17752,0 16.67371,0.0372 16.991,0.25311 0.3666,0.24949 0.36612,0.2585 -0.0339,0.63002 -0.40331,0.3746 -0.4315,0.37576 -4.59845,0.18977 -2.30596,-0.10293 -5.8385,-0.23888 -7.8501,-0.30212 l -3.65743,-0.11497 -0.17021,2.61149 c -0.0936,1.436325 -0.17219,9.731825 -0.17461,18.434455 -0.002,8.70263 -0.0604,15.87432 -0.12891,15.93708 -0.0685,0.0628 -0.17174,0.0441 -0.22947,-0.0414 z M 47.824198,132.59347 c -4.51509,-0.9396 -8.12774,-2.73741 -11.22488,-5.586 -1.91449,-1.76084 -2.96377,-3.08346 -4.08672,-5.1513 -2.46817,-4.54501 -2.78238,-9.90462 -0.8671,-14.79066 1.84871,-4.71621 5.118667,-8.389631 11.336374,-11.028261 3.710389,-1.57459 6.347226,-1.612131 9.776146,-1.561724 4.112313,0.06045 7.36114,1.15927 11.08292,3.38828 2.13809,1.28052 4.67629,3.538195 4.67629,4.159445 0,0.53615 -0.85512,1.37973 -13.03007,12.85414 -11.8024,11.12331 -14.17743,13.42102 -14.17743,13.71593 2.524185,2.40502 6.523967,2.97679 9.827833,2.93159 2.28222,-0.002 4.271287,-0.14875 4.993837,-0.24447 2.87333,-0.38045 6.04733,-1.73293 9.69215,-4.12997 0.96432,-0.63419 1.85158,-1.12308 1.97169,-1.08641 0.12011,0.0367 -0.46197,0.59834 -1.29349,1.24816 -3.46699,2.70939 -7.16175,4.45625 -11.01346,5.20711 -1.70471,0.33232 -6.21472,0.37622 -7.66409,0.0746 z m 2.88782,-15.17153 c 10.5005,-9.66996 14.74743,-13.7309 15.20226,-14.53647 0.25843,-0.45771 0.24991,-0.56598 -0.0947,-1.20397 -0.20828,-0.38557 -0.87637,-1.17857 -1.48463,-1.762225 -2.05532,-1.97216 -4.74561,-3.24417 -8.27656,-3.91329 -1.72927,-0.32769 -2.41817,-0.36772 -4.97692,-0.28916 -3.40078,0.1044 -5.19763,0.45601 -7.38187,1.44448 -2.56039,1.15871 -6.05261,4.073935 -7.87357,6.572695 -1.71496,2.35329 -2.7668,6.27813 -2.77819,10.36649 -0.0136,4.86847 0.81253,7.86776 4.98376,11.84919 l 1.682556,1.60599 0.374144,-0.44751 c 0.44549,-0.35676 5.22618,-4.71556 10.62375,-9.68622 z m -44.1346346,16.0355 c -0.5366169,-0.2943 -0.2326555,-2.82283 -0.3530355,-11.99931 -0.0728,-5.54976 -0.14071,-13.78541 -0.15089,-18.30145 l -0.0185,-11.292862 c 0,0 1.7790972,-0.07492 4.9613561,-0.144799 7.702504,-0.169148 9.956422,0.558189 13.19362,2.588335 5.131667,3.218225 7.226721,10.784126 3.109584,16.471806 -2.71789,2.94029 -5.60996,3.3149 -16.01616,3.7673 l -3.2395059,0.0169 -0.033,6.55833 c -0.031627,6.28552 0.1700701,10.54996 -0.1381199,11.60529 -0.21525,0.73707 -0.2309659,1.32513 -0.9478817,0.93195 z m 9.1746946,-20.33377 c 6.167513,-0.52813 11.628178,-1.20066 12.14267,-8.28138 0.203233,-2.797 -0.770338,-5.232076 -2.578551,-7.391765 C 21.751183,92.537621 11.948483,92.774236 7.8000475,93.33139 l 0.041661,11.26015 0.1341065,8.72899 2.150673,-0.0183 c 0.8694,-0.047 3.40091,-0.1274 5.62559,-0.17872 z M 117.06529,132.5441 c -1.57715,-0.47724 -3.26731,-1.82353 -5.20407,-3.67902 -1.27285,-1.21944 -1.54621,-2.30768 -2.08739,-3.31006 l -0.39749,-1.32368 -0.49972,-8.29121 c -0.0905,-4.54173 -0.10209,-11.03637 -0.0259,-14.43255 0.11988,-5.341935 0.17869,-6.188965 0.43599,-6.279385 0.16358,-0.0575 0.36377,-0.0427 0.44487,0.0328 0.19457,0.18126 0.50102,5.676905 0.74648,13.386595 0.2502,7.85898 0.53146,12.95047 0.79007,14.30215 0.36381,1.90154 0.92166,3.8187 2.64507,5.30061 1.78925,1.53854 4.0556,3.02717 6.1202,3.51079 2.81915,0.66037 5.24191,-0.17338 7.97268,-1.40637 3.39452,-1.53268 4.47589,-4.2571 5.1615,-9.37676 0.33067,-2.46925 0.43259,-4.66717 0.70036,-14.3161 0.20755,-7.478525 0.40037,-9.283955 0.65943,-6.17444 0.20287,2.43497 -0.0371,20.74015 -0.29447,22.45966 -0.11534,0.7707 -0.36931,1.73174 -0.56439,2.13564 -0.5817,1.20444 -1.42843,3.72456 -3.02241,5.24525 -2.16439,2.77989 -8.88161,4.6453 -13.58081,2.21608 z M 88.731248,94.609525 c -2.35434,-0.27179 -4.85702,-0.85542 -6.31641,-1.47299 -0.82732,-0.35009 -1.45331,-0.68315 -1.3911,-0.74013 0.0622,-0.057 1.07039,0.14116 2.2404,0.44031 5.55186,1.41949 9.09692,1.39962 13.26402,-0.0744 1.98913,-0.70358 1.879,-0.68183 1.879,-0.37109 0,0.27847 -1.13585,1.03359 -2.11648,1.40705 -1.65115,0.62881 -5.53196,1.04527 -7.55943,0.81121 z"
       id="path1"
       sodipodi:nodetypes="sscccssssssccssscsssssssscsccccsssssscccccssccssssscscsccccssssssssccscsscccscssssscscsccsccccssscsssscccscccccccscccscsssssssssssccssscssccss" /></g></svg>
